<svg xmlns="http://www.w3.org/2000/svg" width="52.077" height="52.077" viewBox="0 0 52.077 52.077"><path id="user-circle-svgrepo-com" d="M54.077,28.038A26.038,26.038,0,1,1,28.038,2,26.039,26.039,0,0,1,54.077,28.038ZM35.85,20.227a7.812,7.812,0,1,1-7.812-7.812A7.811,7.811,0,0,1,35.85,20.227ZM28.038,50.171a22.03,22.03,0,0,0,12.516-3.877,3.73,3.73,0,0,0,1.33-4.812c-1.9-3.471-5.8-5.633-13.847-5.633s-11.951,2.162-13.847,5.633a3.73,3.73,0,0,0,1.33,4.812A22.031,22.031,0,0,0,28.038,50.171Z" transform="translate(-2 -2)" fill="#83233e" fill-rule="evenodd"></path></svg>